<?xml version="1.0" encoding="utf-8"?>
<!-- Generator: Adobe Illustrator 24.3.0, SVG Export Plug-In . SVG Version: 6.00 Build 0)  -->
<svg version="1.1" id="Capa_1" xmlns="http://www.w3.org/2000/svg" xmlns:xlink="http://www.w3.org/1999/xlink" x="0px" y="0px"
	 viewBox="0 0 669.6 290" style="enable-background:new 0 0 669.6 290;" xml:space="preserve">
<style type="text/css">
	.st0{fill:none;}
	.st1{fill:#E6007E;}
	.st2{fill:#FFFFFF;}
</style>
<g>
	<path class="st0" d="M221.71,124.44c0,34.39,0,68.78,0,103.17c-68.02,0-136.04,0-204.07,0c0-34.87,0-69.75,0-104.62
		c0.05,0.2,0.12,0.41,0.13,0.61c0.31,10.33,2.21,20.36,5.56,30.13c0.23,0.67,0.53,0.89,1.25,0.89c19.56-0.02,39.13-0.02,58.69-0.02
		c0.28,0,0.57,0,1.01,0c-17.08-29.57-34.06-58.97-51.1-88.47c-0.26,0.41-0.45,0.67-0.6,0.95c-1.58,2.88-3.27,5.7-4.7,8.65
		c-5.77,11.85-9.07,24.37-9.93,37.52c-0.09,1.36-0.2,2.72-0.3,4.08c0-34.87,0-69.75,0-104.62c68.02,0,136.04,0,204.07,0
		c0,34.39,0,68.78,0,103.17c-0.05-0.23-0.12-0.46-0.13-0.69c-0.46-9.83-2.33-19.38-5.53-28.67c-0.21-0.61-0.49-0.81-1.14-0.81
		c-19.59,0.02-39.18,0.02-58.77,0.02c-0.28,0-0.57,0-1,0c17.07,29.57,34.05,58.98,51.04,88.39c0.1,0.01,0.19,0.02,0.29,0.03
		c1.8-3.4,3.71-6.74,5.37-10.2c5.52-11.51,8.7-23.65,9.59-36.38C221.49,126.5,221.61,125.47,221.71,124.44z M123.27,18.12
		c-32.8-0.4-59.81,11.66-81.46,35.99c10.15,17.57,20.22,35.01,30.36,52.56C89.21,77.14,106.18,47.73,123.27,18.12z M209.73,72.2
		c-0.14-0.29-0.23-0.49-0.33-0.67c-5.36-9.83-12.1-18.58-20.33-26.17c-14.34-13.22-31.09-21.73-50.26-25.45
		c-0.7-0.14-1.04-0.01-1.39,0.61c-9.78,16.98-19.57,33.95-29.37,50.92c-0.13,0.22-0.24,0.45-0.41,0.75
		C141.72,72.2,175.67,72.2,209.73,72.2z M29.68,168.11c0.15,0.3,0.26,0.54,0.39,0.77c5.3,9.7,11.96,18.35,20.07,25.86
		c14.37,13.32,31.18,21.88,50.43,25.63c0.76,0.15,1.08-0.05,1.44-0.68c9.76-16.96,19.55-33.9,29.33-50.85
		c0.13-0.22,0.24-0.45,0.4-0.74C97.66,168.11,63.72,168.11,29.68,168.11z"/>
	<path class="st1" d="M17.64,117.32c0.1-1.36,0.21-2.72,0.3-4.08c0.87-13.16,4.17-25.67,9.93-37.52c1.43-2.95,3.12-5.77,4.7-8.65
		c0.15-0.28,0.34-0.54,0.6-0.95c2.56,78.92,51.1,88.47,51.1,88.47s-0.73,0-1.01,0c-19.56,0-39.13,0-58.69,0.02
		c-0.72,0-1.02-0.22-1.25-0.89c-3.34-9.77-5.25-19.8-5.56-30.13c-0.01-0.2-0.09-0.41-0.13-0.61
		C17.64,121.09,17.64,119.21,17.64,117.32z"/>
	<path class="st2" d="M221.71,124.44c-0.1,1.03-0.21,2.07-0.29,3.11c-0.89,12.74-4.07,24.88-9.59,36.38
		c-1.66,3.46-3.58,6.8-5.37,10.2c-0.1-0.01-0.19-0.02-0.29-0.03c-16.98-29.41-33.96-58.82-51.04-88.39c0.43,0,0.72,0,1,0
		c19.59,0,39.18,0,58.77-0.02c0.65,0,0.93,0.2,1.14,0.81c3.2,9.3,5.08,18.85,5.53,28.67c0.01,0.23,0.09,0.46,0.13,0.69
		C221.71,118.72,221.71,121.58,221.71,124.44z"/>
	<path class="st2" d="M123.27,18.12c-17.09,29.61-34.06,59.02-51.1,88.56c-10.14-17.55-20.21-35-30.36-52.56
		C63.45,29.78,90.46,17.72,123.27,18.12z"/>
	<path class="st2" d="M209.73,72.2c-34.06,0-68.01,0-102.09,0c0.16-0.3,0.28-0.53,0.41-0.75c9.79-16.97,19.59-33.94,29.37-50.92
		c0.36-0.62,0.69-0.75,1.39-0.61c19.17,3.72,35.92,12.22,50.26,25.45c8.23,7.59,14.98,16.34,20.33,26.17
		C209.5,71.72,209.59,71.91,209.73,72.2z"/>
	<path class="st2" d="M29.68,168.11c34.04,0,67.98,0,102.05,0c-0.16,0.29-0.27,0.51-0.4,0.74c-9.78,16.95-19.56,33.89-29.33,50.85
		c-0.36,0.63-0.67,0.83-1.44,0.68c-19.25-3.75-36.05-12.31-50.43-25.63c-8.11-7.52-14.77-16.16-20.07-25.86
		C29.94,168.65,29.83,168.41,29.68,168.11z"/>
</g>
<g>
	<path class="st2" d="M154.51,206.87v3.98h-19.6v20.11h-3.98v-45.68h27.22v3.98h-23.24v17.6H154.51z"/>
	<path class="st2" d="M175.87,185.28h3.38c1.68,3.87,3.35,7.7,5.02,11.51c1.67,3.8,3.33,7.59,4.99,11.36
		c1.66,3.77,3.31,7.55,4.96,11.35c1.65,3.79,3.31,7.61,4.99,11.46h-1.78c-0.79,0-1.49-0.21-2.12-0.62c-0.63-0.42-1.1-0.97-1.42-1.67
		l-3.73-8.51h-25.21l-3.67,8.51c-0.3,0.7-0.77,1.26-1.42,1.67c-0.65,0.41-1.37,0.62-2.15,0.62h-1.78L175.87,185.28z M166.72,216.17
		h21.68l-10.23-23.46c-0.11-0.23-0.2-0.5-0.29-0.81c-0.08-0.31-0.15-0.6-0.19-0.88c-0.06-0.32-0.11-0.64-0.13-0.96
		c-0.04,0.32-0.1,0.64-0.16,0.96c-0.04,0.28-0.1,0.57-0.18,0.88c-0.07,0.31-0.16,0.58-0.27,0.81L166.72,216.17z"/>
	<path class="st2" d="M208.96,230.96h-5.36v-45.68h17.34c1.68,0,3.28,0.32,4.81,0.96c1.53,0.64,2.87,1.51,4.02,2.61
		c1.15,1.11,2.06,2.4,2.74,3.89c0.68,1.49,1.02,3.07,1.02,4.75c0,0.89-0.11,1.78-0.32,2.68c-0.21,0.89-0.51,1.74-0.88,2.53
		c-0.37,0.8-0.81,1.52-1.31,2.17c-0.5,0.65-1.05,1.17-1.64,1.58c-0.25,0.17-0.46,0.3-0.61,0.38c-0.15,0.09-0.27,0.14-0.35,0.16
		c-0.09,0.02-0.15,0.03-0.19,0.02c-0.04-0.01-0.07-0.02-0.1-0.02c0.42,0,0.87,0.1,1.34,0.29c0.47,0.19,0.87,0.4,1.21,0.64
		c0.91,0.64,1.68,1.36,2.31,2.18c0.63,0.82,1.13,1.69,1.51,2.61c0.38,0.92,0.65,1.87,0.81,2.82c0.16,0.96,0.24,1.89,0.24,2.81
		c0,1.64-0.31,3.21-0.92,4.73c-0.62,1.52-1.48,2.86-2.6,4.02c-1.12,1.16-2.45,2.09-4,2.79c-1.55,0.7-3.26,1.05-5.13,1.05
		L208.96,230.96z M207.59,189.27v16.51h13.36c1.15,0,2.24-0.22,3.27-0.65c1.03-0.43,1.94-1.02,2.73-1.77
		c0.79-0.74,1.41-1.62,1.88-2.63c0.47-1.01,0.7-2.08,0.7-3.2c0-1.15-0.23-2.22-0.7-3.22c-0.47-1-1.1-1.87-1.88-2.61
		c-0.79-0.74-1.7-1.33-2.73-1.77c-1.03-0.43-2.12-0.65-3.27-0.65H207.59z M222.92,226.95c1.19,0,2.31-0.23,3.35-0.68
		c1.04-0.46,1.95-1.08,2.73-1.87c0.78-0.79,1.39-1.69,1.85-2.73c0.46-1.03,0.7-2.14,0.72-3.33c0.02-1.36-0.16-2.57-0.54-3.63
		c-0.38-1.06-0.95-1.96-1.69-2.69c-0.74-0.73-1.66-1.29-2.74-1.67c-1.08-0.38-2.3-0.57-3.63-0.57h-15.37v17.18H222.92z"/>
	<path class="st2" d="M249.18,230.96h-3.98v-45.68h16c1.79,0,3.46,0.33,5.01,1c1.55,0.67,2.91,1.58,4.06,2.74
		c1.16,1.16,2.07,2.51,2.74,4.07c0.67,1.55,1,3.21,1,4.97c0,1.57-0.26,3.09-0.8,4.56c-0.53,1.47-1.27,2.78-2.2,3.95
		c-0.93,1.17-2.06,2.13-3.38,2.88c-1.32,0.75-2.75,1.22-4.3,1.39l15.11,20.11h-1.88c-2.19,0-3.8-0.81-4.85-2.42l-13.29-17.69h-9.24
		V230.96z M249.18,189.27v17.6h12.02c1.21,0,2.36-0.23,3.43-0.69c1.07-0.46,2.01-1.08,2.81-1.88c0.8-0.8,1.43-1.73,1.9-2.81
		c0.47-1.07,0.7-2.22,0.7-3.43c0-1.21-0.23-2.35-0.7-3.41s-1.1-1.99-1.9-2.79c-0.8-0.8-1.73-1.43-2.81-1.9
		c-1.07-0.47-2.22-0.7-3.43-0.7H249.18z"/>
	<path class="st2" d="M289.86,230.96h-3.98v-45.68h3.98V230.96z"/>
	<path class="st2" d="M303.34,208.11c0,1.78,0.23,3.5,0.7,5.15c0.47,1.65,1.12,3.19,1.96,4.64c0.84,1.44,1.85,2.75,3.03,3.92
		c1.18,1.17,2.49,2.18,3.92,3.03c1.43,0.85,2.98,1.5,4.62,1.96c1.65,0.46,3.36,0.68,5.15,0.68c2.06,0,4.02-0.3,5.88-0.92
		c1.86-0.61,3.57-1.44,5.15-2.5c0.3-0.19,0.62-0.34,0.97-0.44c0.35-0.11,0.71-0.16,1.07-0.16c0.62,0,1.15,0.11,1.61,0.32
		c0.46,0.21,0.87,0.5,1.23,0.86l0.32,0.32c-2.13,2.03-4.57,3.63-7.33,4.78c-2.76,1.15-5.73,1.73-8.89,1.73
		c-3.23,0-6.26-0.61-9.08-1.83c-2.83-1.22-5.3-2.89-7.41-5s-3.78-4.59-5-7.43c-1.22-2.84-1.83-5.87-1.83-9.1
		c0-3.23,0.61-6.26,1.83-9.1c1.22-2.84,2.89-5.31,5-7.43c2.11-2.11,4.59-3.78,7.41-5s5.85-1.83,9.08-1.83
		c3.21,0,6.18,0.58,8.93,1.74c2.74,1.16,5.17,2.77,7.3,4.83l-0.32,0.29c-0.38,0.38-0.81,0.68-1.28,0.89
		c-0.47,0.21-0.99,0.32-1.56,0.32c-0.74,0-1.42-0.21-2.04-0.64c-1.57-1.08-3.28-1.93-5.13-2.53c-1.85-0.61-3.81-0.91-5.9-0.91
		c-1.78,0-3.5,0.23-5.15,0.68c-1.65,0.46-3.19,1.11-4.62,1.96c-1.43,0.85-2.74,1.86-3.92,3.03c-1.18,1.17-2.19,2.48-3.03,3.92
		c-0.84,1.45-1.49,2.99-1.96,4.64C303.57,204.61,303.34,206.32,303.34,208.11z"/>
	<path class="st2" d="M352.3,230.96h-3.98v-45.68h3.98V230.96z"/>
	<path class="st2" d="M361.9,208.11c0-3.23,0.61-6.26,1.83-9.1c1.22-2.84,2.9-5.31,5.02-7.43c2.12-2.11,4.6-3.78,7.43-5
		s5.85-1.83,9.08-1.83s6.26,0.61,9.1,1.83c2.84,1.22,5.31,2.89,7.43,5c2.11,2.12,3.78,4.59,5,7.43c1.22,2.84,1.83,5.87,1.83,9.1
		c0,3.23-0.61,6.26-1.83,9.1c-1.22,2.84-2.89,5.31-5,7.43c-2.12,2.11-4.59,3.78-7.43,5c-2.84,1.22-5.87,1.83-9.1,1.83
		s-6.26-0.61-9.08-1.83c-2.83-1.22-5.3-2.89-7.43-5c-2.13-2.11-3.8-4.59-5.02-7.43C362.51,214.37,361.9,211.34,361.9,208.11z
		 M365.88,208.11c0,1.78,0.23,3.5,0.7,5.15c0.47,1.65,1.12,3.19,1.96,4.64c0.84,1.44,1.85,2.75,3.03,3.92
		c1.18,1.17,2.49,2.18,3.92,3.03c1.43,0.85,2.97,1.5,4.62,1.96c1.65,0.46,3.36,0.68,5.15,0.68c1.78,0,3.5-0.23,5.15-0.68
		c1.65-0.46,3.19-1.11,4.64-1.96c1.44-0.85,2.75-1.86,3.92-3.03c1.17-1.17,2.18-2.48,3.03-3.92c0.85-1.44,1.5-2.99,1.96-4.64
		c0.46-1.65,0.68-3.36,0.68-5.15c0-2.68-0.51-5.19-1.53-7.54c-1.02-2.35-2.41-4.4-4.16-6.15c-1.75-1.75-3.8-3.14-6.15-4.16
		c-2.35-1.02-4.86-1.53-7.54-1.53c-1.78,0-3.5,0.23-5.15,0.68c-1.65,0.46-3.19,1.11-4.62,1.96c-1.43,0.85-2.74,1.86-3.92,3.03
		c-1.18,1.17-2.19,2.48-3.03,3.92c-0.84,1.45-1.49,2.99-1.96,4.64C366.12,204.61,365.88,206.32,365.88,208.11z"/>
	<path class="st2" d="M441.37,230.96h-3.98v-45.68h16c1.79,0,3.45,0.33,5.01,1c1.55,0.67,2.91,1.58,4.06,2.74
		c1.16,1.16,2.07,2.51,2.74,4.07s1,3.21,1,4.97c0,1.57-0.27,3.09-0.8,4.56c-0.53,1.47-1.26,2.78-2.2,3.95
		c-0.94,1.17-2.06,2.13-3.38,2.88c-1.32,0.75-2.75,1.22-4.3,1.39l15.11,20.11h-1.88c-2.19,0-3.8-0.81-4.85-2.42l-13.29-17.69h-9.24
		V230.96z M441.37,189.27v17.6h12.02c1.21,0,2.35-0.23,3.43-0.69c1.07-0.46,2.01-1.08,2.81-1.88c0.8-0.8,1.43-1.73,1.9-2.81
		c0.47-1.07,0.7-2.22,0.7-3.43c0-1.21-0.23-2.35-0.7-3.41s-1.1-1.99-1.9-2.79c-0.8-0.8-1.73-1.43-2.81-1.9
		c-1.07-0.47-2.22-0.7-3.43-0.7H441.37z"/>
	<path class="st2" d="M482.04,230.96h-3.98v-45.68h3.98V230.96z"/>
	<path class="st2" d="M507.89,223.54c0.11,0.23,0.2,0.5,0.27,0.81c0.07,0.31,0.13,0.6,0.18,0.88c0.06,0.32,0.12,0.64,0.16,0.96
		c0.02-0.32,0.06-0.64,0.13-0.96c0.04-0.27,0.11-0.56,0.19-0.86c0.09-0.3,0.18-0.57,0.29-0.83l15.72-35.96
		c0.3-0.7,0.76-1.26,1.4-1.67c0.64-0.42,1.35-0.62,2.14-0.62h1.78c-1.68,3.87-3.34,7.69-4.99,11.48c-1.65,3.78-3.3,7.57-4.96,11.35
		c-1.66,3.78-3.32,7.57-4.99,11.36c-1.67,3.79-3.34,7.62-5.02,11.49h-3.38l-19.95-45.68h1.78c0.79,0,1.5,0.21,2.15,0.64
		c0.65,0.43,1.12,0.98,1.42,1.66L507.89,223.54z"/>
	<path class="st2" d="M561.35,230.96h-27.22v-45.68h27.22v3.98h-23.24v16.64h18.81v3.98h-18.81v17.09h23.24V230.96z"/>
	<path class="st2" d="M574.83,230.96h-3.98v-45.68h16c1.79,0,3.45,0.33,5.01,1c1.55,0.67,2.91,1.58,4.06,2.74
		c1.16,1.16,2.07,2.51,2.74,4.07c0.67,1.55,1,3.21,1,4.97c0,1.57-0.27,3.09-0.8,4.56c-0.53,1.47-1.26,2.78-2.2,3.95
		c-0.94,1.17-2.06,2.13-3.38,2.88c-1.32,0.75-2.75,1.22-4.3,1.39l15.11,20.11h-1.88c-2.19,0-3.8-0.81-4.85-2.42l-13.29-17.69h-9.24
		V230.96z M574.83,189.27v17.6h12.02c1.21,0,2.35-0.23,3.43-0.69c1.07-0.46,2.01-1.08,2.81-1.88c0.8-0.8,1.43-1.73,1.9-2.81
		c0.47-1.07,0.7-2.22,0.7-3.43c0-1.21-0.23-2.35-0.7-3.41c-0.47-1.06-1.1-1.99-1.9-2.79c-0.8-0.8-1.73-1.43-2.81-1.9
		c-1.07-0.47-2.22-0.7-3.43-0.7H574.83z"/>
	<path class="st2" d="M623.67,185.28h3.38c1.68,3.87,3.35,7.7,5.02,11.51s3.33,7.59,4.99,11.36c1.66,3.77,3.31,7.55,4.96,11.35
		c1.65,3.79,3.31,7.61,4.99,11.46h-1.78c-0.79,0-1.49-0.21-2.12-0.62c-0.63-0.42-1.1-0.97-1.42-1.67l-3.73-8.51h-25.21l-3.67,8.51
		c-0.3,0.7-0.77,1.26-1.42,1.67c-0.65,0.41-1.37,0.62-2.15,0.62h-1.78L623.67,185.28z M614.52,216.17h21.68l-10.23-23.46
		c-0.11-0.23-0.2-0.5-0.29-0.81c-0.09-0.31-0.15-0.6-0.19-0.88c-0.06-0.32-0.11-0.64-0.13-0.96c-0.04,0.32-0.1,0.64-0.16,0.96
		c-0.04,0.28-0.1,0.57-0.18,0.88c-0.08,0.31-0.16,0.58-0.27,0.81L614.52,216.17z"/>
</g>
<g>
	<path class="st2" d="M370.44,254.53v1.84h-9.04v9.28h-1.84v-21.07h12.56v1.84H361.4v8.12H370.44z"/>
	<path class="st2" d="M386.33,255.11c0-1.49,0.28-2.89,0.85-4.2c0.56-1.31,1.33-2.45,2.32-3.43c0.98-0.97,2.12-1.74,3.42-2.31
		s2.7-0.85,4.19-0.85c1.49,0,2.89,0.28,4.2,0.85s2.45,1.33,3.42,2.31c0.98,0.98,1.75,2.12,2.31,3.43s0.85,2.71,0.85,4.2
		c0,1.49-0.28,2.89-0.85,4.2s-1.33,2.45-2.31,3.43c-0.97,0.97-2.12,1.74-3.42,2.31s-2.71,0.85-4.2,0.85c-1.49,0-2.89-0.28-4.19-0.85
		s-2.45-1.33-3.42-2.31c-0.98-0.98-1.75-2.12-2.32-3.43C386.61,258,386.33,256.6,386.33,255.11z M388.17,255.11
		c0,0.82,0.11,1.62,0.32,2.37c0.22,0.76,0.52,1.47,0.9,2.14c0.39,0.67,0.85,1.27,1.4,1.81c0.54,0.54,1.15,1,1.81,1.4
		c0.66,0.39,1.37,0.69,2.13,0.9c0.76,0.21,1.55,0.32,2.37,0.32s1.61-0.11,2.37-0.32c0.76-0.21,1.47-0.51,2.14-0.9
		c0.67-0.39,1.27-0.86,1.81-1.4c0.54-0.54,1-1.14,1.4-1.81c0.39-0.67,0.69-1.38,0.9-2.14c0.21-0.76,0.32-1.55,0.32-2.37
		c0-1.23-0.24-2.39-0.71-3.48s-1.11-2.03-1.92-2.84s-1.75-1.45-2.84-1.92c-1.08-0.47-2.24-0.71-3.48-0.71
		c-0.82,0-1.62,0.11-2.37,0.32c-0.76,0.21-1.47,0.51-2.13,0.9c-0.66,0.39-1.26,0.86-1.81,1.4s-1.01,1.14-1.4,1.81
		c-0.39,0.67-0.69,1.38-0.9,2.14S388.17,254.28,388.17,255.11z"/>
	<path class="st2" d="M419.79,246.42v-1.85h15.72v1.85h-6.94v19.23h-1.84v-19.23H419.79z"/>
	<path class="st2" d="M447.42,255.11c0-1.49,0.28-2.89,0.85-4.2c0.56-1.31,1.33-2.45,2.32-3.43c0.98-0.97,2.12-1.74,3.42-2.31
		s2.7-0.85,4.19-0.85c1.49,0,2.89,0.28,4.2,0.85s2.45,1.33,3.42,2.31c0.98,0.98,1.75,2.12,2.31,3.43s0.85,2.71,0.85,4.2
		c0,1.49-0.28,2.89-0.85,4.2s-1.33,2.45-2.31,3.43c-0.97,0.97-2.12,1.74-3.42,2.31s-2.71,0.85-4.2,0.85c-1.49,0-2.89-0.28-4.19-0.85
		s-2.45-1.33-3.42-2.31c-0.98-0.98-1.75-2.12-2.32-3.43C447.7,258,447.42,256.6,447.42,255.11z M449.25,255.11
		c0,0.82,0.11,1.62,0.32,2.37c0.22,0.76,0.52,1.47,0.9,2.14c0.39,0.67,0.85,1.27,1.4,1.81c0.54,0.54,1.15,1,1.81,1.4
		c0.66,0.39,1.37,0.69,2.13,0.9c0.76,0.21,1.55,0.32,2.37,0.32s1.61-0.11,2.37-0.32c0.76-0.21,1.47-0.51,2.14-0.9
		c0.67-0.39,1.27-0.86,1.81-1.4c0.54-0.54,1-1.14,1.4-1.81c0.39-0.67,0.69-1.38,0.9-2.14c0.21-0.76,0.32-1.55,0.32-2.37
		c0-1.23-0.24-2.39-0.71-3.48s-1.11-2.03-1.92-2.84s-1.75-1.45-2.84-1.92c-1.08-0.47-2.24-0.71-3.48-0.71
		c-0.82,0-1.62,0.11-2.37,0.32c-0.76,0.21-1.47,0.51-2.13,0.9c-0.66,0.39-1.26,0.86-1.81,1.4s-1.01,1.14-1.4,1.81
		c-0.39,0.67-0.69,1.38-0.9,2.14S449.25,254.28,449.25,255.11z"/>
	<path class="st2" d="M501.83,255.53v8.12c-0.48,0.44-1.01,0.81-1.59,1.09s-1.2,0.52-1.85,0.69c-0.66,0.17-1.34,0.29-2.04,0.35
		c-0.71,0.06-1.42,0.1-2.15,0.1c-1.49,0-2.89-0.28-4.19-0.85s-2.45-1.33-3.42-2.31c-0.98-0.98-1.75-2.12-2.32-3.43
		c-0.56-1.31-0.85-2.71-0.85-4.2c0-1.49,0.28-2.89,0.85-4.2c0.56-1.31,1.33-2.45,2.32-3.43c0.98-0.97,2.12-1.74,3.42-2.31
		s2.7-0.85,4.19-0.85c1.47,0,2.84,0.27,4.11,0.8c1.27,0.53,2.39,1.28,3.37,2.23l-0.15,0.13c-0.19,0.19-0.38,0.33-0.6,0.42
		c-0.21,0.09-0.45,0.14-0.71,0.14c-0.34,0-0.66-0.1-0.94-0.29c-0.72-0.5-1.51-0.89-2.37-1.17s-1.76-0.42-2.72-0.42
		c-0.82,0-1.62,0.11-2.38,0.32c-0.76,0.21-1.47,0.51-2.13,0.9c-0.66,0.39-1.26,0.86-1.81,1.4s-1.01,1.14-1.4,1.81
		c-0.39,0.67-0.69,1.38-0.9,2.14s-0.32,1.55-0.32,2.37s0.11,1.62,0.33,2.37c0.22,0.76,0.53,1.47,0.93,2.14
		c0.4,0.67,0.88,1.27,1.43,1.81c0.55,0.54,1.17,1,1.84,1.4c0.68,0.39,1.4,0.69,2.17,0.9c0.77,0.21,1.57,0.32,2.39,0.32
		c1.02,0,2-0.13,2.96-0.4c0.95-0.27,1.85-0.67,2.71-1.21v-5.06h-1.87c-0.27,0-0.52-0.05-0.73-0.15c-0.22-0.1-0.4-0.23-0.55-0.39
		s-0.27-0.35-0.35-0.57c-0.08-0.21-0.12-0.44-0.12-0.68v-0.06H501.83z"/>
	<path class="st2" d="M520.29,265.65h-1.84v-21.07h7.38c0.82,0,1.59,0.15,2.31,0.46c0.72,0.31,1.34,0.73,1.88,1.26
		s0.96,1.16,1.26,1.88c0.31,0.71,0.46,1.48,0.46,2.29c0,0.73-0.12,1.43-0.37,2.1c-0.25,0.68-0.58,1.28-1.01,1.82
		c-0.43,0.54-0.95,0.98-1.56,1.33c-0.61,0.35-1.27,0.56-1.99,0.64l6.97,9.28h-0.87c-1.01,0-1.75-0.37-2.23-1.12l-6.13-8.16h-4.26
		V265.65z M520.29,246.42v8.12h5.54c0.56,0,1.08-0.11,1.58-0.32c0.5-0.21,0.93-0.5,1.29-0.87c0.37-0.37,0.66-0.8,0.88-1.29
		c0.21-0.49,0.32-1.02,0.32-1.58s-0.11-1.08-0.32-1.57c-0.22-0.49-0.51-0.92-0.88-1.29c-0.37-0.37-0.8-0.66-1.29-0.88
		c-0.5-0.21-1.02-0.32-1.58-0.32H520.29z"/>
	<path class="st2" d="M554.57,244.58h1.56c0.77,1.78,1.55,3.55,2.32,5.31c0.77,1.75,1.54,3.5,2.3,5.24
		c0.76,1.74,1.53,3.48,2.29,5.23c0.76,1.75,1.53,3.51,2.3,5.29h-0.82c-0.36,0-0.69-0.1-0.98-0.29c-0.29-0.19-0.51-0.45-0.65-0.77
		l-1.72-3.92h-11.63l-1.69,3.92c-0.14,0.32-0.36,0.58-0.65,0.77c-0.3,0.19-0.63,0.29-0.99,0.29h-0.82L554.57,244.58z M550.35,258.83
		h10l-4.72-10.82c-0.05-0.11-0.09-0.23-0.13-0.38c-0.04-0.14-0.07-0.28-0.09-0.4c-0.03-0.15-0.05-0.29-0.06-0.44
		c-0.02,0.15-0.04,0.29-0.07,0.44c-0.02,0.13-0.05,0.26-0.08,0.4c-0.03,0.14-0.08,0.27-0.12,0.38L550.35,258.83z"/>
	<path class="st2" d="M590.02,254.53v1.84h-9.04v9.28h-1.84v-21.07h12.56v1.84h-10.72v8.12H590.02z"/>
	<path class="st2" d="M609.48,265.65h-1.84v-21.07h1.84V265.65z"/>
	<path class="st2" d="M633,244.58h1.56c0.77,1.78,1.55,3.55,2.32,5.31c0.77,1.75,1.54,3.5,2.3,5.24c0.76,1.74,1.53,3.48,2.29,5.23
		c0.76,1.75,1.53,3.51,2.3,5.29h-0.82c-0.36,0-0.69-0.1-0.98-0.29c-0.29-0.19-0.51-0.45-0.65-0.77l-1.72-3.92h-11.63l-1.69,3.92
		c-0.14,0.32-0.36,0.58-0.65,0.77c-0.3,0.19-0.63,0.29-0.99,0.29h-0.82L633,244.58z M628.79,258.83h10l-4.72-10.82
		c-0.05-0.11-0.09-0.23-0.13-0.38c-0.04-0.14-0.07-0.28-0.09-0.4c-0.03-0.15-0.05-0.29-0.06-0.44c-0.02,0.15-0.04,0.29-0.07,0.44
		c-0.02,0.13-0.05,0.26-0.08,0.4c-0.03,0.14-0.08,0.27-0.12,0.38L628.79,258.83z"/>
</g>
</svg>
