<?xml version="1.0" encoding="utf-8"?>
<!-- Generator: Adobe Illustrator 24.3.0, SVG Export Plug-In . SVG Version: 6.00 Build 0)  -->
<svg version="1.1" id="Capa_1" xmlns="http://www.w3.org/2000/svg" xmlns:xlink="http://www.w3.org/1999/xlink" x="0px" y="0px"
	 viewBox="0 0 317.42 249.89" style="enable-background:new 0 0 317.42 249.89;" xml:space="preserve">
<style type="text/css">
	.st0{fill:url(#SVGID_1_);}
	.st1{fill:url(#SVGID_2_);}
	.st2{fill:url(#SVGID_3_);}
	.st3{fill:url(#SVGID_4_);}
	.st4{fill:url(#SVGID_5_);}
	.st5{fill:url(#SVGID_6_);}
	.st6{fill:url(#SVGID_7_);}
	.st7{fill:url(#SVGID_8_);}
	.st8{fill:url(#SVGID_9_);}
	.st9{fill:url(#SVGID_10_);}
	.st10{fill:#FFFFFF;}
</style>
<g>
	
		<linearGradient id="SVGID_1_" gradientUnits="userSpaceOnUse" x1="131.6927" y1="505.0332" x2="-70.2464" y2="493.9365" gradientTransform="matrix(0.845 0 0 -1.6814 10.7809 1074.905)">
		<stop  offset="0" style="stop-color:#ED2C70"/>
		<stop  offset="0.1233" style="stop-color:#B1386A"/>
		<stop  offset="0.1934" style="stop-color:#943E67"/>
		<stop  offset="0.2353" style="stop-color:#844165"/>
		<stop  offset="0.3517" style="stop-color:#5C4A61"/>
		<stop  offset="0.4716" style="stop-color:#3A515E"/>
		<stop  offset="0.5942" style="stop-color:#21565B"/>
		<stop  offset="0.7204" style="stop-color:#0E5A59"/>
		<stop  offset="0.8525" style="stop-color:#045C58"/>
		<stop  offset="1" style="stop-color:#005D58"/>
	</linearGradient>
	<path class="st0" d="M234.49,216.54c0,0-152.04-7.87-150.52,0c21.15,18.33-55.16-1.68,0,11.76c55.16,13.44,150.52,0,150.52,0
		C218.11,218.49,217.95,215.75,234.49,216.54z"/>
	<linearGradient id="SVGID_2_" gradientUnits="userSpaceOnUse" x1="162.8195" y1="49.4539" x2="115.7315" y2="27.3724">
		<stop  offset="0" style="stop-color:#ED2C70"/>
		<stop  offset="0.098" style="stop-color:#E82D70"/>
		<stop  offset="0.2106" style="stop-color:#DA306E"/>
		<stop  offset="0.3303" style="stop-color:#C3356C"/>
		<stop  offset="0.4551" style="stop-color:#A33B68"/>
		<stop  offset="0.5838" style="stop-color:#7A4464"/>
		<stop  offset="0.7158" style="stop-color:#474E5F"/>
		<stop  offset="0.8481" style="stop-color:#0C5B59"/>
		<stop  offset="0.8729" style="stop-color:#005D58"/>
	</linearGradient>
	<polygon class="st1" points="173.35,62.66 121.57,59.64 123.61,35.61 174.42,25.37 	"/>
	<linearGradient id="SVGID_3_" gradientUnits="userSpaceOnUse" x1="129.8434" y1="5.4736" x2="145.8811" y2="71.9068">
		<stop  offset="0" style="stop-color:#ED2C70"/>
		<stop  offset="0.1997" style="stop-color:#EA2D70"/>
		<stop  offset="0.3213" style="stop-color:#E22E6F"/>
		<stop  offset="0.422" style="stop-color:#D4316D"/>
		<stop  offset="0.5113" style="stop-color:#BF356B"/>
		<stop  offset="0.5931" style="stop-color:#A53B69"/>
		<stop  offset="0.6694" style="stop-color:#844265"/>
		<stop  offset="0.7414" style="stop-color:#5D4A61"/>
		<stop  offset="0.8082" style="stop-color:#32535D"/>
		<stop  offset="0.8729" style="stop-color:#005D58"/>
	</linearGradient>
	<path class="st2" d="M162.58,62.11l-49.61-3.58l2.6-24.37c3.02-12.07,27.81-19.94,47.01-16.01V62.11z"/>
	<linearGradient id="SVGID_4_" gradientUnits="userSpaceOnUse" x1="170.9852" y1="44.8045" x2="161.7026" y2="44.2944">
		<stop  offset="0" style="stop-color:#ED2C70"/>
		<stop  offset="0.1918" style="stop-color:#EA2D70"/>
		<stop  offset="0.313" style="stop-color:#E22E6F"/>
		<stop  offset="0.4146" style="stop-color:#D3316D"/>
		<stop  offset="0.5054" style="stop-color:#BE366B"/>
		<stop  offset="0.5891" style="stop-color:#A33B68"/>
		<stop  offset="0.6675" style="stop-color:#824265"/>
		<stop  offset="0.7418" style="stop-color:#5B4A61"/>
		<stop  offset="0.811" style="stop-color:#2F535C"/>
		<stop  offset="0.8729" style="stop-color:#005D58"/>
	</linearGradient>
	<polygon class="st3" points="174.42,66.14 164.54,66.14 164.54,22.76 174.42,25.37 	"/>
	<linearGradient id="SVGID_5_" gradientUnits="userSpaceOnUse" x1="215.9887" y1="113.1866" x2="70.3149" y2="44.8743">
		<stop  offset="0" style="stop-color:#ED2C70"/>
		<stop  offset="0.098" style="stop-color:#E82D70"/>
		<stop  offset="0.2106" style="stop-color:#DA306E"/>
		<stop  offset="0.3303" style="stop-color:#C3356C"/>
		<stop  offset="0.4551" style="stop-color:#A33B68"/>
		<stop  offset="0.5838" style="stop-color:#7A4464"/>
		<stop  offset="0.7158" style="stop-color:#474E5F"/>
		<stop  offset="0.8481" style="stop-color:#0C5B59"/>
		<stop  offset="0.8729" style="stop-color:#005D58"/>
	</linearGradient>
	<polygon class="st4" points="239.89,172.5 89.18,160.98 95.14,69.43 239.89,17.13 	"/>
	<linearGradient id="SVGID_6_" gradientUnits="userSpaceOnUse" x1="194.5807" y1="117.3965" x2="23.1427" y2="37.0023">
		<stop  offset="0" style="stop-color:#ED2C70"/>
		<stop  offset="0.1997" style="stop-color:#EA2D70"/>
		<stop  offset="0.3213" style="stop-color:#E22E6F"/>
		<stop  offset="0.422" style="stop-color:#D4316D"/>
		<stop  offset="0.5113" style="stop-color:#BF356B"/>
		<stop  offset="0.5931" style="stop-color:#A53B69"/>
		<stop  offset="0.6694" style="stop-color:#844265"/>
		<stop  offset="0.7414" style="stop-color:#5D4A61"/>
		<stop  offset="0.8082" style="stop-color:#32535D"/>
		<stop  offset="0.8729" style="stop-color:#005D58"/>
	</linearGradient>
	<path class="st5" d="M213.79,183.11l-144.4-13.64l7.58-92.84c60.82-11.37,136.82-61.01,136.82-61.01V183.11z"/>
	<linearGradient id="SVGID_7_" gradientUnits="userSpaceOnUse" x1="75.5161" y1="111.5831" x2="149.4571" y2="96.9445">
		<stop  offset="0.0162" style="stop-color:#FFFFFF"/>
		<stop  offset="0.2075" style="stop-color:#FCFDFD"/>
		<stop  offset="0.324" style="stop-color:#F4F8F8"/>
		<stop  offset="0.4206" style="stop-color:#E6EFEE"/>
		<stop  offset="0.5062" style="stop-color:#D1E2E1"/>
		<stop  offset="0.5846" style="stop-color:#B7D1D0"/>
		<stop  offset="0.6577" style="stop-color:#96BCBA"/>
		<stop  offset="0.7268" style="stop-color:#6FA4A1"/>
		<stop  offset="0.7926" style="stop-color:#438783"/>
		<stop  offset="0.8536" style="stop-color:#116863"/>
		<stop  offset="0.8729" style="stop-color:#005D58"/>
	</linearGradient>
	<ellipse class="st6" cx="106.81" cy="105.39" rx="31.04" ry="42.73"/>
	<linearGradient id="SVGID_8_" gradientUnits="userSpaceOnUse" x1="224.7653" y1="104.1101" x2="196.0327" y2="102.5313">
		<stop  offset="0" style="stop-color:#ED2C70"/>
		<stop  offset="0.1918" style="stop-color:#EA2D70"/>
		<stop  offset="0.313" style="stop-color:#E22E6F"/>
		<stop  offset="0.4146" style="stop-color:#D3316D"/>
		<stop  offset="0.5054" style="stop-color:#BE366B"/>
		<stop  offset="0.5891" style="stop-color:#A33B68"/>
		<stop  offset="0.6675" style="stop-color:#824265"/>
		<stop  offset="0.7418" style="stop-color:#5B4A61"/>
		<stop  offset="0.811" style="stop-color:#2F535C"/>
		<stop  offset="0.8729" style="stop-color:#005D58"/>
	</linearGradient>
	<polygon class="st7" points="234.49,186.81 205.71,186.81 205.71,19.32 234.49,31.44 	"/>
	<linearGradient id="SVGID_9_" gradientUnits="userSpaceOnUse" x1="120.8618" y1="96.156" x2="182.7052" y2="149.5679">
		<stop  offset="0.0937" style="stop-color:#ED2C70"/>
		<stop  offset="0.272" style="stop-color:#EA2D70"/>
		<stop  offset="0.3805" style="stop-color:#E22E6F"/>
		<stop  offset="0.4704" style="stop-color:#D4316D"/>
		<stop  offset="0.5502" style="stop-color:#BF356B"/>
		<stop  offset="0.6232" style="stop-color:#A53B69"/>
		<stop  offset="0.6912" style="stop-color:#844265"/>
		<stop  offset="0.7555" style="stop-color:#5D4A61"/>
		<stop  offset="0.8152" style="stop-color:#32535D"/>
		<stop  offset="0.8729" style="stop-color:#005D58"/>
	</linearGradient>
	<path class="st8" d="M164.47,137.02c-34.17,7.57-55.34,8.5-55.34,8.5c28.74-1.9,50.04-70.33,11.62-84.9l45.93,16.66
		C188.84,88.03,183.08,127.82,164.47,137.02z"/>
	<linearGradient id="SVGID_10_" gradientUnits="userSpaceOnUse" x1="43.2844" y1="118.2887" x2="161.4442" y2="89.9709">
		<stop  offset="0" style="stop-color:#574A60"/>
		<stop  offset="0.0866" style="stop-color:#664762"/>
		<stop  offset="0.254" style="stop-color:#8E3F66"/>
		<stop  offset="0.4835" style="stop-color:#CE326D"/>
		<stop  offset="0.5163" style="stop-color:#D8306E"/>
		<stop  offset="0.5849" style="stop-color:#D4316E"/>
		<stop  offset="0.6489" style="stop-color:#C9336C"/>
		<stop  offset="0.7111" style="stop-color:#B6376A"/>
		<stop  offset="0.7722" style="stop-color:#9C3D68"/>
		<stop  offset="0.8324" style="stop-color:#794464"/>
		<stop  offset="0.8921" style="stop-color:#4F4D60"/>
		<stop  offset="0.9501" style="stop-color:#1F575B"/>
		<stop  offset="0.9824" style="stop-color:#005D58"/>
	</linearGradient>
	<path class="st9" d="M113.86,60.16c-16.65-2.65-33.3,14.4-37.19,38.1c-3.89,23.7,6.45,45.06,23.1,47.71
		c16.65,2.65,33.3-14.4,37.19-38.1C140.85,84.17,130.51,62.81,113.86,60.16z M106.81,144.98c-13.87,0-25.11-18.77-25.11-41.91
		c0-23.15,11.24-41.91,25.11-41.91c13.87,0,25.11,18.77,25.11,41.91C131.92,126.21,120.68,144.98,106.81,144.98z"/>
	<g>
		<path d="M47.57,195.06l-0.04,1.37l-6.75-0.2l-0.2,6.92l-1.37-0.04l0.46-15.72l9.37,0.27L49,189.04l-8-0.23l-0.18,6.05
			L47.57,195.06z"/>
		<path d="M59.52,187.98l1.16,0.03c0.54,1.35,1.08,2.68,1.61,4.01c0.54,1.33,1.07,2.65,1.6,3.96c0.53,1.31,1.06,2.63,1.59,3.95
			c0.53,1.32,1.06,2.65,1.6,3.99l-0.61-0.02c-0.27-0.01-0.51-0.09-0.72-0.23c-0.21-0.15-0.37-0.35-0.47-0.59l-1.2-2.97l-8.68-0.25
			l-1.35,2.89c-0.11,0.24-0.28,0.43-0.5,0.56c-0.23,0.14-0.48,0.2-0.75,0.19l-0.61-0.02L59.52,187.98z M56.06,198.52l7.46,0.22
			l-3.29-8.18c-0.03-0.08-0.07-0.18-0.09-0.28c-0.03-0.11-0.05-0.21-0.06-0.3c-0.02-0.11-0.03-0.22-0.03-0.33
			c-0.02,0.11-0.04,0.22-0.06,0.33c-0.02,0.09-0.04,0.19-0.07,0.3c-0.03,0.1-0.06,0.2-0.1,0.28L56.06,198.52z"/>
		<path d="M74.84,204.16l-1.84-0.05l0.46-15.72l5.97,0.17c0.58,0.02,1.13,0.14,1.65,0.38c0.52,0.24,0.97,0.55,1.36,0.94
			c0.38,0.39,0.68,0.85,0.9,1.37c0.22,0.52,0.32,1.07,0.3,1.64c-0.01,0.31-0.06,0.61-0.14,0.92c-0.08,0.3-0.19,0.59-0.33,0.86
			c-0.14,0.27-0.29,0.51-0.47,0.73s-0.37,0.39-0.58,0.53c-0.09,0.06-0.16,0.1-0.21,0.12s-0.09,0.05-0.12,0.05
			c-0.03,0.01-0.05,0.01-0.07,0c-0.01,0-0.03-0.01-0.03-0.01c0.15,0,0.3,0.04,0.46,0.11c0.16,0.07,0.3,0.15,0.41,0.23
			c0.31,0.23,0.57,0.49,0.77,0.77c0.21,0.29,0.37,0.59,0.49,0.91c0.12,0.32,0.21,0.65,0.25,0.98c0.05,0.33,0.06,0.65,0.05,0.97
			c-0.02,0.56-0.14,1.1-0.37,1.62c-0.23,0.52-0.54,0.97-0.93,1.36c-0.4,0.39-0.86,0.69-1.4,0.92c-0.54,0.23-1.13,0.33-1.78,0.31
			L74.84,204.16z M79.68,202.92c0.41,0.01,0.79-0.05,1.16-0.2c0.36-0.15,0.68-0.35,0.96-0.62c0.27-0.26,0.5-0.57,0.66-0.92
			c0.17-0.35,0.26-0.73,0.28-1.14c0.02-0.47-0.03-0.89-0.15-1.26c-0.12-0.37-0.31-0.68-0.55-0.94c-0.25-0.26-0.56-0.46-0.93-0.6
			c-0.37-0.14-0.78-0.22-1.24-0.23l-5.29-0.15l-0.17,5.91L79.68,202.92z M74.78,189.8l-0.17,5.68l4.6,0.13
			c0.39,0.01,0.77-0.05,1.13-0.19c0.36-0.14,0.68-0.33,0.96-0.58c0.28-0.25,0.5-0.54,0.67-0.89c0.17-0.34,0.26-0.71,0.27-1.1
			c0.01-0.39-0.06-0.77-0.21-1.12c-0.15-0.35-0.36-0.65-0.62-0.92c-0.26-0.26-0.57-0.48-0.92-0.64c-0.35-0.16-0.72-0.25-1.12-0.26
			L74.78,189.8z"/>
		<path d="M93.07,204.69l-1.37-0.04l0.46-15.72l5.51,0.16c0.61,0.02,1.19,0.15,1.71,0.39c0.53,0.25,0.98,0.57,1.37,0.98
			s0.69,0.89,0.9,1.43c0.22,0.54,0.31,1.11,0.3,1.72c-0.02,0.54-0.12,1.06-0.32,1.56c-0.2,0.5-0.46,0.95-0.8,1.34
			c-0.33,0.39-0.73,0.71-1.19,0.96c-0.46,0.25-0.96,0.39-1.49,0.43l5,7.07l-0.65-0.02c-0.75-0.02-1.3-0.32-1.64-0.88l-4.4-6.22
			l-3.18-0.09L93.07,204.69z M93.49,190.34l-0.18,6.05l4.14,0.12c0.42,0.01,0.81-0.05,1.19-0.2c0.37-0.15,0.7-0.35,0.98-0.62
			c0.28-0.27,0.51-0.58,0.68-0.95c0.17-0.36,0.26-0.76,0.28-1.17c0.01-0.42-0.06-0.81-0.21-1.18c-0.15-0.37-0.36-0.7-0.62-0.98
			c-0.27-0.28-0.58-0.51-0.95-0.68c-0.36-0.17-0.76-0.26-1.17-0.28L93.49,190.34z"/>
		<path d="M111.45,205.23l-1.37-0.04l0.46-15.72l1.37,0.04L111.45,205.23z"/>
		<path d="M120.71,197.63c-0.02,0.61,0.05,1.21,0.19,1.78c0.14,0.57,0.35,1.11,0.63,1.61c0.27,0.51,0.61,0.97,1,1.38
			c0.39,0.41,0.83,0.78,1.32,1.08c0.48,0.31,1.01,0.55,1.57,0.72c0.56,0.17,1.15,0.27,1.76,0.29c0.71,0.02,1.39-0.06,2.03-0.26
			c0.65-0.19,1.25-0.46,1.8-0.81c0.1-0.06,0.22-0.11,0.34-0.14c0.12-0.03,0.24-0.05,0.37-0.04c0.21,0.01,0.4,0.05,0.55,0.13
			c0.16,0.08,0.29,0.18,0.41,0.31l0.11,0.11c-0.75,0.68-1.61,1.2-2.57,1.57c-0.96,0.37-1.99,0.54-3.08,0.51
			c-1.11-0.03-2.15-0.27-3.11-0.72s-1.79-1.05-2.5-1.8c-0.71-0.75-1.26-1.62-1.65-2.61c-0.39-0.99-0.57-2.04-0.54-3.15
			c0.03-1.11,0.27-2.15,0.72-3.11c0.45-0.97,1.05-1.8,1.8-2.51c0.75-0.71,1.62-1.25,2.6-1.65c0.99-0.39,2.03-0.57,3.14-0.54
			c1.1,0.03,2.12,0.26,3.05,0.69c0.93,0.43,1.75,1.01,2.46,1.74l-0.11,0.09c-0.14,0.13-0.28,0.23-0.45,0.29
			c-0.16,0.07-0.34,0.1-0.54,0.1c-0.26-0.01-0.49-0.09-0.7-0.24c-0.53-0.39-1.11-0.7-1.74-0.92c-0.63-0.23-1.3-0.35-2.02-0.37
			c-0.61-0.02-1.21,0.04-1.78,0.18c-0.57,0.14-1.11,0.35-1.61,0.63c-0.5,0.28-0.96,0.61-1.38,1s-0.78,0.83-1.08,1.32
			c-0.3,0.49-0.54,1.01-0.72,1.58C120.82,196.42,120.72,197.01,120.71,197.63z"/>
		<path d="M141.71,206.11l-1.37-0.04l0.46-15.72l1.37,0.04L141.71,206.11z"/>
		<path d="M149.63,198.47c0.03-1.11,0.27-2.15,0.72-3.11c0.45-0.96,1.05-1.8,1.8-2.51c0.75-0.71,1.62-1.25,2.61-1.65
			c0.99-0.39,2.03-0.57,3.14-0.54c1.11,0.03,2.15,0.27,3.11,0.72c0.96,0.45,1.8,1.05,2.51,1.8c0.71,0.75,1.26,1.62,1.65,2.61
			c0.39,0.99,0.57,2.04,0.54,3.15c-0.03,1.11-0.27,2.15-0.72,3.11c-0.45,0.96-1.05,1.8-1.8,2.51c-0.75,0.71-1.62,1.26-2.61,1.65
			c-0.99,0.39-2.04,0.57-3.15,0.54c-1.11-0.03-2.15-0.27-3.11-0.72c-0.96-0.45-1.8-1.05-2.51-1.8c-0.71-0.75-1.26-1.62-1.65-2.61
			C149.78,200.63,149.6,199.58,149.63,198.47z M151,198.51c-0.02,0.61,0.04,1.21,0.19,1.78c0.14,0.57,0.35,1.11,0.63,1.61
			c0.28,0.51,0.61,0.97,1,1.38c0.39,0.41,0.83,0.78,1.32,1.08c0.49,0.31,1.01,0.55,1.57,0.72c0.56,0.17,1.15,0.27,1.76,0.29
			c0.61,0.02,1.21-0.04,1.78-0.18c0.57-0.14,1.11-0.35,1.62-0.63c0.5-0.28,0.96-0.61,1.38-1c0.41-0.39,0.77-0.83,1.08-1.32
			s0.55-1.01,0.72-1.58c0.17-0.56,0.27-1.15,0.29-1.77c0.03-0.92-0.12-1.79-0.45-2.61c-0.33-0.82-0.78-1.54-1.37-2.16
			c-0.58-0.62-1.28-1.12-2.08-1.49c-0.8-0.37-1.66-0.58-2.58-0.6c-0.61-0.02-1.21,0.04-1.78,0.18c-0.57,0.14-1.11,0.35-1.61,0.63
			c-0.5,0.28-0.96,0.61-1.38,1c-0.42,0.39-0.78,0.83-1.08,1.32c-0.3,0.49-0.54,1.01-0.72,1.58
			C151.12,197.31,151.02,197.9,151,198.51z"/>
		<path d="M185.52,207.39l-1.37-0.04l0.46-15.72l5.51,0.16c0.61,0.02,1.18,0.15,1.71,0.39c0.53,0.25,0.98,0.57,1.37,0.98
			s0.69,0.89,0.9,1.43c0.21,0.54,0.31,1.11,0.3,1.72c-0.02,0.54-0.12,1.06-0.32,1.56c-0.2,0.5-0.46,0.95-0.8,1.34
			c-0.33,0.39-0.73,0.71-1.19,0.96c-0.46,0.25-0.96,0.39-1.49,0.43l5,7.07l-0.65-0.02c-0.75-0.02-1.3-0.32-1.64-0.88l-4.4-6.22
			l-3.18-0.09L185.52,207.39z M185.94,193.04l-0.18,6.05l4.14,0.12c0.42,0.01,0.81-0.06,1.19-0.2c0.37-0.15,0.7-0.35,0.98-0.62
			c0.28-0.27,0.51-0.58,0.68-0.95c0.17-0.36,0.26-0.76,0.28-1.17s-0.06-0.81-0.21-1.18c-0.15-0.37-0.36-0.7-0.63-0.98
			c-0.27-0.28-0.58-0.51-0.95-0.68c-0.36-0.17-0.75-0.26-1.17-0.28L185.94,193.04z"/>
		<path d="M203.9,207.93l-1.37-0.04l0.46-15.72l1.37,0.04L203.9,207.93z"/>
		<path d="M217.26,205.76c0.04,0.08,0.06,0.18,0.09,0.28c0.02,0.11,0.04,0.21,0.05,0.3c0.02,0.11,0.03,0.22,0.04,0.33
			c0.01-0.11,0.03-0.22,0.05-0.33c0.02-0.09,0.04-0.19,0.07-0.29c0.03-0.1,0.07-0.2,0.11-0.28l5.77-12.21
			c0.11-0.24,0.28-0.43,0.5-0.56c0.22-0.14,0.47-0.2,0.74-0.19l0.61,0.02c-0.62,1.31-1.23,2.61-1.83,3.9
			c-0.61,1.29-1.21,2.57-1.82,3.85c-0.61,1.29-1.22,2.57-1.83,3.86c-0.61,1.29-1.23,2.59-1.84,3.9l-1.16-0.03l-6.41-15.92l0.61,0.02
			c0.27,0.01,0.52,0.09,0.73,0.24c0.22,0.15,0.38,0.35,0.47,0.58L217.26,205.76z"/>
		<path d="M239.97,208.98l-9.37-0.27l0.46-15.72l9.37,0.27l-0.04,1.37l-8-0.23l-0.17,5.73l6.47,0.19l-0.04,1.37l-6.47-0.19
			l-0.17,5.88l8,0.23L239.97,208.98z"/>
		<path d="M248.99,209.24l-1.37-0.04l0.46-15.72l5.51,0.16c0.61,0.02,1.19,0.15,1.71,0.4c0.53,0.25,0.98,0.57,1.37,0.98
			c0.39,0.41,0.69,0.89,0.9,1.43s0.31,1.11,0.3,1.72c-0.02,0.54-0.12,1.06-0.32,1.56c-0.2,0.5-0.46,0.94-0.8,1.34
			c-0.33,0.39-0.73,0.71-1.19,0.96c-0.46,0.25-0.96,0.39-1.5,0.43l5,7.07l-0.65-0.02c-0.75-0.02-1.3-0.32-1.64-0.88l-4.4-6.22
			l-3.18-0.09L248.99,209.24z M249.41,194.9l-0.18,6.05l4.13,0.12c0.42,0.01,0.81-0.05,1.19-0.2c0.38-0.15,0.7-0.35,0.98-0.62
			c0.28-0.27,0.51-0.58,0.68-0.95c0.17-0.36,0.26-0.76,0.27-1.17s-0.06-0.81-0.21-1.18c-0.15-0.37-0.36-0.7-0.63-0.98
			c-0.27-0.28-0.58-0.51-0.95-0.68c-0.36-0.17-0.76-0.26-1.17-0.28L249.41,194.9z"/>
		<path d="M270.64,194.15l1.16,0.03c0.54,1.35,1.08,2.68,1.61,4.01c0.54,1.33,1.07,2.65,1.6,3.96c0.53,1.32,1.06,2.63,1.59,3.95
			c0.53,1.32,1.06,2.65,1.6,3.99l-0.61-0.02c-0.27-0.01-0.51-0.09-0.72-0.24c-0.21-0.15-0.37-0.35-0.47-0.59l-1.2-2.96l-8.68-0.25
			l-1.35,2.89c-0.11,0.24-0.28,0.43-0.5,0.56c-0.23,0.13-0.48,0.2-0.75,0.19l-0.61-0.02L270.64,194.15z M267.18,204.68l7.46,0.22
			l-3.28-8.18c-0.04-0.08-0.06-0.18-0.09-0.28c-0.03-0.11-0.05-0.21-0.06-0.3c-0.02-0.11-0.03-0.22-0.04-0.33
			c-0.02,0.11-0.04,0.22-0.06,0.33c-0.02,0.1-0.04,0.19-0.07,0.3c-0.03,0.11-0.06,0.2-0.1,0.28L267.18,204.68z"/>
	</g>
	<g>
		<path class="st10" d="M99.35,223.31v0.79h-3.87v3.97h-0.79v-9.01h5.37v0.79h-4.58v3.47H99.35z"/>
		<path class="st10" d="M106.15,223.56c0-0.64,0.12-1.24,0.36-1.8s0.57-1.05,0.99-1.47c0.42-0.42,0.91-0.75,1.47-0.99
			s1.16-0.36,1.79-0.36c0.64,0,1.24,0.12,1.8,0.36c0.56,0.24,1.05,0.57,1.46,0.99c0.42,0.42,0.75,0.91,0.99,1.47s0.36,1.16,0.36,1.8
			s-0.12,1.24-0.36,1.8s-0.57,1.05-0.99,1.46c-0.42,0.42-0.91,0.75-1.46,0.99c-0.56,0.24-1.16,0.36-1.8,0.36
			c-0.64,0-1.24-0.12-1.79-0.36s-1.05-0.57-1.47-0.99c-0.42-0.42-0.75-0.91-0.99-1.46S106.15,224.2,106.15,223.56z M106.93,223.56
			c0,0.35,0.05,0.69,0.14,1.02c0.09,0.33,0.22,0.63,0.39,0.92c0.17,0.29,0.37,0.54,0.6,0.77c0.23,0.23,0.49,0.43,0.77,0.6
			c0.28,0.17,0.59,0.3,0.91,0.39c0.33,0.09,0.66,0.14,1.02,0.14c0.35,0,0.69-0.04,1.02-0.14c0.33-0.09,0.63-0.22,0.92-0.39
			c0.29-0.17,0.54-0.37,0.77-0.6c0.23-0.23,0.43-0.49,0.6-0.77s0.3-0.59,0.39-0.92c0.09-0.33,0.14-0.66,0.14-1.02
			c0-0.53-0.1-1.02-0.3-1.49c-0.2-0.46-0.48-0.87-0.82-1.21c-0.35-0.35-0.75-0.62-1.21-0.82c-0.46-0.2-0.96-0.3-1.49-0.3
			c-0.35,0-0.69,0.04-1.02,0.13c-0.32,0.09-0.63,0.22-0.91,0.39c-0.28,0.17-0.54,0.37-0.77,0.6c-0.23,0.23-0.43,0.49-0.6,0.77
			c-0.17,0.29-0.29,0.59-0.39,0.92C106.98,222.87,106.93,223.21,106.93,223.56z"/>
		<path class="st10" d="M120.46,219.84v-0.79h6.72v0.79h-2.97v8.23h-0.79v-8.23H120.46z"/>
		<path class="st10" d="M132.28,223.56c0-0.64,0.12-1.24,0.36-1.8s0.57-1.05,0.99-1.47c0.42-0.42,0.91-0.75,1.47-0.99
			s1.16-0.36,1.79-0.36c0.64,0,1.24,0.12,1.8,0.36c0.56,0.24,1.05,0.57,1.46,0.99c0.42,0.42,0.75,0.91,0.99,1.47s0.36,1.16,0.36,1.8
			s-0.12,1.24-0.36,1.8s-0.57,1.05-0.99,1.46c-0.42,0.42-0.91,0.75-1.46,0.99c-0.56,0.24-1.16,0.36-1.8,0.36
			c-0.64,0-1.24-0.12-1.79-0.36s-1.05-0.57-1.47-0.99c-0.42-0.42-0.75-0.91-0.99-1.46S132.28,224.2,132.28,223.56z M133.07,223.56
			c0,0.35,0.05,0.69,0.14,1.02c0.09,0.33,0.22,0.63,0.39,0.92c0.17,0.29,0.37,0.54,0.6,0.77c0.23,0.23,0.49,0.43,0.77,0.6
			c0.28,0.17,0.59,0.3,0.91,0.39c0.33,0.09,0.66,0.14,1.02,0.14c0.35,0,0.69-0.04,1.02-0.14c0.33-0.09,0.63-0.22,0.92-0.39
			c0.29-0.17,0.54-0.37,0.77-0.6c0.23-0.23,0.43-0.49,0.6-0.77s0.3-0.59,0.39-0.92c0.09-0.33,0.14-0.66,0.14-1.02
			c0-0.53-0.1-1.02-0.3-1.49c-0.2-0.46-0.48-0.87-0.82-1.21c-0.35-0.35-0.75-0.62-1.21-0.82c-0.46-0.2-0.96-0.3-1.49-0.3
			c-0.35,0-0.69,0.04-1.02,0.13c-0.32,0.09-0.63,0.22-0.91,0.39c-0.28,0.17-0.54,0.37-0.77,0.6c-0.23,0.23-0.43,0.49-0.6,0.77
			c-0.17,0.29-0.29,0.59-0.39,0.92C133.11,222.87,133.07,223.21,133.07,223.56z"/>
		<path class="st10" d="M155.56,223.74v3.47c-0.21,0.19-0.43,0.34-0.68,0.47c-0.25,0.12-0.51,0.22-0.79,0.3
			c-0.28,0.07-0.57,0.12-0.87,0.15c-0.3,0.03-0.61,0.04-0.92,0.04c-0.64,0-1.23-0.12-1.79-0.36c-0.56-0.24-1.05-0.57-1.47-0.99
			c-0.42-0.42-0.75-0.91-0.99-1.46s-0.36-1.16-0.36-1.8s0.12-1.24,0.36-1.8s0.57-1.05,0.99-1.47c0.42-0.42,0.91-0.75,1.47-0.99
			c0.56-0.24,1.16-0.36,1.79-0.36c0.63,0,1.21,0.11,1.76,0.34s1.02,0.55,1.44,0.95l-0.06,0.06c-0.08,0.08-0.16,0.14-0.25,0.18
			c-0.09,0.04-0.19,0.06-0.3,0.06c-0.15,0-0.28-0.04-0.4-0.12c-0.31-0.21-0.65-0.38-1.01-0.5c-0.37-0.12-0.75-0.18-1.16-0.18
			c-0.35,0-0.69,0.04-1.02,0.13c-0.33,0.09-0.63,0.22-0.91,0.39c-0.28,0.17-0.54,0.37-0.77,0.6c-0.23,0.23-0.43,0.49-0.6,0.77
			s-0.29,0.59-0.39,0.92c-0.09,0.33-0.14,0.66-0.14,1.02s0.05,0.69,0.14,1.02c0.09,0.33,0.23,0.63,0.4,0.92s0.38,0.54,0.61,0.77
			c0.24,0.23,0.5,0.43,0.79,0.6c0.29,0.17,0.6,0.3,0.93,0.39c0.33,0.09,0.67,0.14,1.02,0.14c0.44,0,0.86-0.06,1.26-0.17
			c0.41-0.12,0.79-0.29,1.16-0.52v-2.16h-0.8c-0.12,0-0.22-0.02-0.31-0.06c-0.09-0.04-0.17-0.1-0.24-0.17
			c-0.06-0.07-0.12-0.15-0.15-0.24c-0.04-0.09-0.05-0.19-0.05-0.29v-0.02H155.56z"/>
		<path class="st10" d="M163.46,228.07h-0.79v-9.01h3.16c0.35,0,0.68,0.07,0.99,0.2c0.31,0.13,0.57,0.31,0.8,0.54s0.41,0.5,0.54,0.8
			c0.13,0.31,0.2,0.63,0.2,0.98c0,0.31-0.05,0.61-0.16,0.9c-0.11,0.29-0.25,0.55-0.43,0.78s-0.41,0.42-0.67,0.57
			c-0.26,0.15-0.54,0.24-0.85,0.27l2.98,3.97h-0.37c-0.43,0-0.75-0.16-0.96-0.48l-2.62-3.49h-1.82V228.07z M163.46,219.84v3.47h2.37
			c0.24,0,0.46-0.04,0.68-0.14c0.21-0.09,0.4-0.21,0.55-0.37s0.28-0.34,0.37-0.55c0.09-0.21,0.14-0.44,0.14-0.68
			s-0.05-0.46-0.14-0.67c-0.09-0.21-0.22-0.39-0.37-0.55s-0.34-0.28-0.55-0.37c-0.21-0.09-0.44-0.14-0.68-0.14H163.46z"/>
		<path class="st10" d="M178.13,219.06h0.67c0.33,0.76,0.66,1.52,0.99,2.27c0.33,0.75,0.66,1.5,0.98,2.24
			c0.33,0.74,0.65,1.49,0.98,2.24c0.33,0.75,0.65,1.5,0.98,2.26h-0.35c-0.16,0-0.29-0.04-0.42-0.12c-0.12-0.08-0.22-0.19-0.28-0.33
			l-0.74-1.68h-4.98l-0.72,1.68c-0.06,0.14-0.15,0.25-0.28,0.33c-0.13,0.08-0.27,0.12-0.42,0.12h-0.35L178.13,219.06z
			 M176.32,225.15h4.28l-2.02-4.63c-0.02-0.05-0.04-0.1-0.06-0.16s-0.03-0.12-0.04-0.17c-0.01-0.06-0.02-0.13-0.03-0.19
			c-0.01,0.06-0.02,0.13-0.03,0.19c-0.01,0.05-0.02,0.11-0.04,0.17s-0.03,0.11-0.05,0.16L176.32,225.15z"/>
		<path class="st10" d="M193.29,223.31v0.79h-3.87v3.97h-0.79v-9.01h5.37v0.79h-4.58v3.47H193.29z"/>
		<path class="st10" d="M201.62,228.07h-0.79v-9.01h0.79V228.07z"/>
		<path class="st10" d="M211.68,219.06h0.67c0.33,0.76,0.66,1.52,0.99,2.27c0.33,0.75,0.66,1.5,0.98,2.24
			c0.33,0.74,0.65,1.49,0.98,2.24c0.33,0.75,0.65,1.5,0.98,2.26h-0.35c-0.16,0-0.29-0.04-0.42-0.12c-0.12-0.08-0.22-0.19-0.28-0.33
			l-0.74-1.68h-4.98l-0.72,1.68c-0.06,0.14-0.15,0.25-0.28,0.33c-0.13,0.08-0.27,0.12-0.42,0.12h-0.35L211.68,219.06z
			 M209.88,225.15h4.28l-2.02-4.63c-0.02-0.05-0.04-0.1-0.06-0.16s-0.03-0.12-0.04-0.17c-0.01-0.06-0.02-0.13-0.03-0.19
			c-0.01,0.06-0.02,0.13-0.03,0.19c-0.01,0.05-0.02,0.11-0.04,0.17s-0.03,0.11-0.05,0.16L209.88,225.15z"/>
	</g>
</g>
</svg>
